<mxfile host="app.diagrams.net" modified="2023-06-06T20:19:14.380Z" agent="Mozilla/5.0 (Macintosh; Intel Mac OS X 10_15_7) AppleWebKit/537.36 (KHTML, like Gecko) Chrome/114.0.0.0 Safari/537.36" version="21.3.3" etag="5x2vt6jGIAHIp6z0ugCR" type="github">
  <diagram name="Page-1" id="315by9DNcMQmlT7auNU5">
    <mxGraphModel>
      <root>
        <mxCell id="0" />
        <mxCell id="1" parent="0" />
      </root>
    </mxGraphModel>
  </diagram>
</mxfile>
